<svg width="117" height="18" viewBox="0 0 117 18" fill="none" xmlns="http://www.w3.org/2000/svg">
<g clip-path="url(#clip0_1_464)">
<path fill-rule="evenodd" clip-rule="evenodd" d="M9.81247 13.977L4.04482 17.7564L5.8569 11.1031L0.480225 6.78564L7.36779 6.45306L9.81247 0.00537109L12.2571 6.45306L19.1447 6.78564L13.768 11.1031L15.5801 17.7564L9.81247 13.977Z" fill="#FFC54F"/>
</g>
<g clip-path="url(#clip1_1_464)">
<path fill-rule="evenodd" clip-rule="evenodd" d="M32.5861 13.977L26.8185 17.7564L28.6306 11.1031L23.2539 6.78564L30.1415 6.45306L32.5861 0.00537109L35.0308 6.45306L41.9184 6.78564L36.5417 11.1031L38.3538 17.7564L32.5861 13.977Z" fill="#FFC54F"/>
</g>
<g clip-path="url(#clip2_1_464)">
<path fill-rule="evenodd" clip-rule="evenodd" d="M55.3598 13.977L49.5922 17.7564L51.4043 11.1031L46.0276 6.78564L52.9152 6.45306L55.3598 0.00537109L57.8045 6.45306L64.6921 6.78564L59.3154 11.1031L61.1275 17.7564L55.3598 13.977Z" fill="#FFC54F"/>
</g>
<g clip-path="url(#clip3_1_464)">
<path fill-rule="evenodd" clip-rule="evenodd" d="M78.1335 13.977L72.3659 17.7564L74.1779 11.1031L68.8013 6.78564L75.6888 6.45306L78.1335 0.00537109L80.5782 6.45306L87.4658 6.78564L82.0891 11.1031L83.9012 17.7564L78.1335 13.977Z" fill="#FFC54F"/>
</g>
<g clip-path="url(#clip4_1_464)">
<path fill-rule="evenodd" clip-rule="evenodd" d="M100.907 13.977L95.1394 17.7564L96.9515 11.1031L91.5748 6.78564L98.4624 6.45306L100.907 0.00537109L103.352 6.45306L110.239 6.78564L104.863 11.1031L106.675 17.7564L100.907 13.977Z" fill="#FFC54F"/>
</g>
<defs>
<clipPath id="clip0_1_464">
<rect width="19.625" height="17.9896" fill="white" transform="translate(0 0.00537109)"/>
</clipPath>
<clipPath id="clip1_1_464">
<rect width="19.625" height="17.9896" fill="white" transform="translate(22.7737 0.00537109)"/>
</clipPath>
<clipPath id="clip2_1_464">
<rect width="19.625" height="17.9896" fill="white" transform="translate(45.5474 0.00537109)"/>
</clipPath>
<clipPath id="clip3_1_464">
<rect width="19.625" height="17.9896" fill="white" transform="translate(68.321 0.00537109)"/>
</clipPath>
<clipPath id="clip4_1_464">
<rect width="19.625" height="17.9896" fill="white" transform="translate(91.0946 0.00537109)"/>
</clipPath>
</defs>
</svg>
