<svg width="156" height="145" viewBox="0 0 156 145" fill="none" xmlns="http://www.w3.org/2000/svg">
<path d="M12.2 132.4L10.7975 133.826L10.8093 133.837L10.8213 133.849L12.2 132.4ZM12.2 12.2L13.5781 13.6494L13.5787 13.6488L12.2 12.2ZM79 12.2L77.6213 13.6488L77.6332 13.6602L77.6454 13.6714L79 12.2ZM79 132.4L80.3787 133.849L80.3793 133.848L79 132.4ZM62.2 118L63.5909 119.437L63.6026 119.426L63.6142 119.414L62.2 118ZM62.2 26.6L60.7858 28.0142L60.7974 28.0258L60.8092 28.0372L62.2 26.6ZM29.2 26.6L30.6142 28.0142L30.6142 28.0142L29.2 26.6ZM29.2 118L27.7628 119.391L27.7856 119.414L27.8092 119.437L29.2 118ZM45.6 142.2C31.9905 142.2 21.3932 138.388 13.5787 130.951L10.8213 133.849C19.5401 142.146 31.2095 146.2 45.6 146.2V142.2ZM13.6025 130.974C5.91987 123.417 2 113.235 2 100.2H-2C-2 114.098 2.21346 125.383 10.7975 133.826L13.6025 130.974ZM2 100.2V43.8H-2V100.2H2ZM2 43.8C2 30.9031 5.91603 20.9347 13.5781 13.6494L10.8219 10.7506C2.2173 18.932 -2 30.0303 -2 43.8H2ZM13.5787 13.6488C21.3932 6.21245 31.9905 2.4 45.6 2.4V-1.6C31.2095 -1.6 19.5401 2.45421 10.8213 10.7512L13.5787 13.6488ZM45.6 2.4C59.2095 2.4 69.8068 6.21245 77.6213 13.6488L80.3787 10.7512C71.6599 2.45422 59.9905 -1.6 45.6 -1.6V2.4ZM77.6454 13.6714C85.5642 20.9617 89.6 30.9232 89.6 43.8H93.6C93.6 30.0102 89.2358 18.905 80.3546 10.7286L77.6454 13.6714ZM89.6 43.8V100.2H93.6V43.8H89.6ZM89.6 100.2C89.6 113.215 85.5598 123.391 77.6207 130.952L80.3793 133.848C89.2402 125.409 93.6 114.118 93.6 100.2H89.6ZM77.6213 130.951C69.8068 138.388 59.2095 142.2 45.6 142.2V146.2C59.9905 146.2 71.6599 142.146 80.3787 133.849L77.6213 130.951ZM45.6 126C52.939 126 59.0103 123.87 63.5909 119.437L60.8092 116.563C57.1231 120.13 52.1276 122 45.6 122V126ZM63.6142 119.414C68.1915 114.837 70.4 108.758 70.4 101.4H66.4C66.4 107.909 64.4752 112.896 60.7858 116.586L63.6142 119.414ZM70.4 101.4V43H66.4V101.4H70.4ZM70.4 43C70.4 35.6444 68.1918 29.6153 63.5909 25.1628L60.8092 28.0372C64.4749 31.5847 66.4 36.4889 66.4 43H70.4ZM63.6142 25.1858C59.0369 20.6085 52.9577 18.4 45.6 18.4V22.4C52.109 22.4 57.0964 24.3248 60.7858 28.0142L63.6142 25.1858ZM45.6 18.4C38.3632 18.4 32.3556 20.616 27.7858 25.1858L30.6142 28.0142C34.3111 24.3173 39.2368 22.4 45.6 22.4V18.4ZM27.7858 25.1858C23.3294 29.6422 21.2 35.6635 21.2 43H25.2C25.2 36.4698 27.0706 31.5578 30.6142 28.0142L27.7858 25.1858ZM21.2 43V101.4H25.2V43H21.2ZM21.2 101.4C21.2 108.739 23.33 114.81 27.7628 119.391L30.6372 116.609C27.07 112.923 25.2 107.928 25.2 101.4H21.2ZM27.8092 119.437C32.3824 123.863 38.3821 126 45.6 126V122C39.2179 122 34.2843 120.137 30.5908 116.563L27.8092 119.437ZM131.352 2.59999L130.649 0.727337L130.551 0.764194L130.457 0.811142L131.352 2.59999ZM155.152 2.79999L153.552 3.99999L153.723 4.22856L153.952 4.39999L155.152 2.79999ZM155.152 141.4L153.737 139.986V139.986L155.152 141.4ZM133.352 141.4L131.752 142.6L131.923 142.829L132.152 143L133.352 141.4ZM132.352 25.4L130.937 26.8142L131.167 27.0437L131.457 27.1889L132.352 25.4ZM131.552 25.2L132.144 27.1103L132.3 27.0619L132.446 26.9888L131.552 25.2ZM111.552 31.4L110.959 29.4897L110.803 29.5381L110.657 29.6111L111.552 31.4ZM109.152 31L107.487 32.1094L107.597 32.2742L107.737 32.4142L109.152 31ZM108.752 29.4H110.752V29.3546L110.749 29.3092L108.752 29.4ZM108.152 16.2H106.152V16.2454L106.154 16.2908L108.152 16.2ZM109.752 13.4L110.646 15.1889L110.646 15.1889L109.752 13.4ZM132.054 4.47265C132.944 4.13887 133.704 3.99999 134.352 3.99999V-7.62939e-06C133.132 -7.62939e-06 131.893 0.261116 130.649 0.727337L132.054 4.47265ZM134.352 3.99999H153.552V-7.62939e-06H134.352V3.99999ZM153.552 3.99999C153.585 3.99999 153.597 4.00323 153.593 4.00237C153.591 4.00198 153.586 4.00085 153.58 3.99847C153.573 3.99609 153.565 3.99289 153.557 3.98884C153.549 3.9848 153.542 3.98057 153.536 3.97659C153.53 3.97263 153.526 3.96966 153.525 3.9685C153.522 3.96591 153.532 3.97363 153.552 3.99999L156.752 1.59999C155.974 0.563049 154.848 -7.62939e-06 153.552 -7.62939e-06V3.99999ZM153.952 4.39999C153.978 4.41976 153.986 4.4296 153.983 4.42657C153.982 4.42522 153.979 4.42158 153.975 4.41565C153.971 4.40968 153.967 4.4025 153.963 4.39442C153.959 4.38634 153.955 4.37865 153.953 4.37189C153.951 4.36516 153.95 4.3606 153.949 4.35886C153.948 4.35497 153.952 4.36705 153.952 4.39999H157.952C157.952 3.10381 157.389 1.9777 156.352 1.19999L153.952 4.39999ZM153.952 4.39999V139.6H157.952V4.39999H153.952ZM153.952 139.6C153.952 139.665 153.949 139.774 153.737 139.986L156.566 142.814C157.42 141.96 157.952 140.868 157.952 139.6H153.952ZM153.737 139.986C153.736 139.987 153.739 139.984 153.745 139.98C153.751 139.976 153.753 139.976 153.749 139.977C153.742 139.98 153.685 140 153.552 140V144C154.647 144 155.724 143.656 156.566 142.814L153.737 139.986ZM153.552 140H135.152V144H153.552V140ZM135.152 140C134.918 140 134.739 139.94 134.552 139.8L132.152 143C133.031 143.66 134.052 144 135.152 144V140ZM134.952 140.2C134.811 140.013 134.752 139.834 134.752 139.6H130.752C130.752 140.699 131.092 141.72 131.752 142.6L134.952 140.2ZM134.752 139.6V26H130.752V139.6H134.752ZM134.752 26C134.752 25.5167 134.625 25.0046 134.316 24.5406C134.015 24.0891 133.617 23.7964 133.246 23.6111L131.457 27.1889C131.353 27.1369 131.155 27.0109 130.987 26.7594C130.811 26.4954 130.752 26.2166 130.752 26H134.752ZM133.766 23.9858C133.468 23.6877 133.029 23.3578 132.437 23.2097C131.8 23.0504 131.179 23.1504 130.657 23.4111L132.446 26.9888C132.191 27.1162 131.837 27.1829 131.466 27.0903C131.141 27.0088 130.969 26.8456 130.937 26.8142L133.766 23.9858ZM130.959 23.2897L110.959 29.4897L112.144 33.3103L132.144 27.1103L130.959 23.2897ZM110.657 29.6111C110.703 29.5881 110.726 29.5856 110.709 29.5888C110.692 29.5923 110.642 29.6 110.552 29.6V33.6C111.161 33.6 111.823 33.5001 112.446 33.1889L110.657 29.6111ZM110.552 29.6C110.544 29.6 110.546 29.5993 110.556 29.6013C110.561 29.6023 110.566 29.6036 110.572 29.6055C110.578 29.6074 110.584 29.6095 110.589 29.6117C110.595 29.6139 110.598 29.6159 110.601 29.6173C110.603 29.6187 110.604 29.6191 110.602 29.6181C110.6 29.6162 110.587 29.6071 110.566 29.5858L107.737 32.4142C108.487 33.164 109.453 33.6 110.552 33.6V29.6ZM110.816 29.8906C110.838 29.9235 110.752 29.8194 110.752 29.4H106.752C106.752 30.3139 106.932 31.2765 107.487 32.1094L110.816 29.8906ZM110.749 29.3092L110.149 16.1092L106.154 16.2908L106.754 29.4908L110.749 29.3092ZM110.152 16.2C110.152 15.7986 110.231 15.5922 110.288 15.4923C110.338 15.4054 110.426 15.299 110.646 15.1889L108.857 11.6111C108.011 12.0343 107.299 12.6612 106.815 13.5077C106.339 14.3411 106.152 15.2681 106.152 16.2H110.152ZM110.646 15.1889L132.246 4.38885L130.457 0.811142L108.857 11.6111L110.646 15.1889Z" fill="#B4977B"/>
</svg>
