<svg width="18" height="18" viewBox="0 0 18 18" fill="none" xmlns="http://www.w3.org/2000/svg">
<path fill-rule="evenodd" clip-rule="evenodd" d="M1.85139 0.226936C1.4873 0.377802 1.15675 0.599405 0.878901 0.87891C0.318114 1.44266 0.00229671 2.20484 0 3.00001V15C0.00229671 15.7952 0.318114 16.5573 0.878901 17.1211C1.15675 17.4006 1.4873 17.6222 1.85139 17.7731C2.21548 17.9239 2.60589 18.0011 3 18H15C15.7954 17.9991 16.5579 17.6828 17.1204 17.1203C17.6828 16.5579 17.9991 15.7954 18 15V14C18 13.7348 17.8946 13.4804 17.7071 13.2929C17.5196 13.1054 17.2652 13 17 13C16.7348 13 16.4804 13.1054 16.2929 13.2929C16.1054 13.4804 16 13.7348 16 14V15C15.9998 15.2651 15.8943 15.5194 15.7068 15.7068C15.5194 15.8943 15.2651 15.9998 15 16H3C2.73478 16 2.48043 15.8946 2.29289 15.7071C2.10536 15.5196 2 15.2652 2 15V3.00001C2 2.73479 2.10536 2.48044 2.29289 2.2929C2.48043 2.10537 2.73478 2.00001 3 2.00001H15C15.2651 2.00025 15.5194 2.10568 15.7068 2.29317C15.8943 2.48065 15.9998 2.73487 16 3.00001V4C16 4.26522 16.1054 4.51957 16.2929 4.70711C16.4804 4.89465 16.7348 5 17 5C17.2652 5 17.5196 4.89465 17.7071 4.70711C17.8946 4.51957 18 4.26522 18 4V3.00001C17.9991 2.20463 17.6828 1.44207 17.1204 0.879655C16.5579 0.317235 15.7954 0.000884489 15 1.10107e-05H3C2.60589 -0.00106041 2.21548 0.0760705 1.85139 0.226936ZM11.0699 5.39469C11.1223 5.5167 11.1985 5.62704 11.294 5.71929L13.5871 8.01229H5.00008C4.73484 8.01229 4.48047 8.11765 4.29292 8.30518C4.10537 8.49272 4 8.74707 4 9.01229C4 9.27751 4.10537 9.53186 4.29292 9.7194C4.48047 9.90693 4.73484 10.0123 5.00008 10.0123H13.5871L11.294 12.3053C11.1118 12.4939 11.011 12.7465 11.0133 13.0087C11.0156 13.2709 11.1208 13.5217 11.3062 13.7071C11.4916 13.8925 11.7424 13.9977 12.0047 14C12.2669 14.0022 12.5195 13.9014 12.7081 13.7193L16.7079 9.71999C16.895 9.53198 17 9.27753 17 9.01229C17 8.74705 16.895 8.4926 16.7079 8.30459L12.7081 4.30529C12.6159 4.20978 12.5055 4.1336 12.3835 4.08119C12.2615 4.02878 12.1303 4.00119 11.9975 4.00004C11.8647 3.99888 11.733 4.02419 11.6101 4.07447C11.4872 4.12475 11.3755 4.199 11.2816 4.29289C11.1877 4.38679 11.1135 4.49844 11.0632 4.62134C11.0129 4.74423 10.9876 4.87591 10.9887 5.00869C10.9899 5.14147 11.0175 5.27269 11.0699 5.39469Z" fill="#0052FF"/>
</svg>
