<svg width="18" height="18" viewBox="0 0 18 18" fill="none" xmlns="http://www.w3.org/2000/svg">
<path fill-rule="evenodd" clip-rule="evenodd" d="M9 8C10.6569 8 12 6.65685 12 5C12 3.34315 10.6569 2 9 2C7.34315 2 6 3.34315 6 5C6 6.65685 7.34315 8 9 8ZM9 10C11.7614 10 14 7.76142 14 5C14 2.23858 11.7614 0 9 0C6.23858 0 4 2.23858 4 5C4 6.85823 5.01368 8.4797 6.51825 9.3416C7.24954 9.76052 8.09681 10 9 10ZM8 16C8.55228 16 9 16.4477 9 17C9 17.5523 8.55229 18 8 18H1C0.447716 18 0 17.5523 0 17V12.5828C0 12.2226 0.193855 11.8905 0.512851 11.7233C1.15823 11.3849 2.35245 10.7896 3.74614 10.2416C4.01025 10.1378 4.30765 10.2022 4.52581 10.3837C4.67042 10.504 4.81997 10.6186 4.97409 10.7272C5.39229 11.0217 5.33974 11.7763 4.86079 11.9559C3.73711 12.3772 2.71583 12.8528 2 13.2093V16H8ZM13.5 12C13.5 11.4477 13.9477 11 14.5 11C15.0523 11 15.5 11.4477 15.5 12V13.5H17C17.5523 13.5 18 13.9477 18 14.5C18 15.0523 17.5523 15.5 17 15.5H15.5V17C15.5 17.5523 15.0523 18 14.5 18C13.9477 18 13.5 17.5523 13.5 17V15.5H12C11.4477 15.5 11 15.0523 11 14.5C11 13.9477 11.4477 13.5 12 13.5H13.5V12Z" fill="white"/>
</svg>
